<?xml version="1.0" encoding="iso-8859-1"?>
<!-- Generator: Adobe Illustrator 19.0.0, SVG Export Plug-In . SVG Version: 6.00 Build 0)  -->
<svg version="1.1" id="Layer_1" xmlns="http://www.w3.org/2000/svg" xmlns:xlink="http://www.w3.org/1999/xlink" x="0px" y="0px"
	 viewBox="0 0 213.01 213.01" style="enable-background:new 0 0 213.01 213.01;" xml:space="preserve">
<g>
	<g>
		<g>
			<path d="M152.692,54.13c-12.196,0-22.688,7.427-27.198,17.994c-4.711-6.415-12.284-10.604-20.836-10.604
				c-10.252,0-19.103,6.011-23.285,14.679c-3.22-10.619-13.092-18.374-24.749-18.374c-14.262,0-25.864,11.602-25.864,25.864
				c0,14.262,11.602,25.864,25.864,25.864c1.564,0,3.087-0.162,4.575-0.43c-5.073,4.725-8.27,11.44-8.27,18.904
				c0,10.562,6.37,19.651,15.464,23.663c-5.21,2.903-8.784,8.402-8.784,14.778c0,9.364,7.619,16.983,16.983,16.983
				c1.45,0,2.835-0.239,4.18-0.583c-3.86,3.115-6.383,7.825-6.383,13.159c0,9.364,7.619,16.983,16.983,16.983
				s16.981-7.619,16.981-16.983c0-3.337-1.002-6.431-2.671-9.059c0.878,0.106,1.765,0.177,2.671,0.177
				c12.225,0,22.169-9.944,22.169-22.169c0-5.805-2.261-11.079-5.925-15.036c11.677-1.622,20.704-11.645,20.704-23.761
				c0-6.363-2.505-12.141-6.56-16.443c4.158,2.236,8.907,3.511,13.949,3.511c16.299,0,29.559-13.261,29.559-29.559
				S168.991,54.13,152.692,54.13z M127.611,99.255c1.224,1.964,2.648,3.79,4.284,5.411c-1.978-0.979-4.104-1.697-6.343-2.101
				C126.316,101.516,127.009,100.415,127.611,99.255z M104.658,68.909c10.186,0,18.475,8.288,18.475,18.475
				c0,6.922-3.873,12.897-9.524,16.06c-1.219,0.413-2.397,0.911-3.519,1.506c-1.728,0.537-3.529,0.909-5.432,0.909
				c-10.186,0-18.475-8.288-18.475-18.475S94.472,68.909,104.658,68.909z M101.69,140.019c0.8,1.128,1.68,2.196,2.658,3.169
				c-2.312,0.425-4.504,1.193-6.507,2.276C99.343,143.825,100.646,142.004,101.69,140.019z M99.613,112.747
				c0.532,0.106,1.077,0.176,1.62,0.248c-0.238,0.361-0.456,0.737-0.676,1.112C100.258,113.641,99.94,113.191,99.613,112.747z
				 M79.909,94.874c0.861,2.837,2.211,5.456,3.929,7.79c-1.633-0.324-3.318-0.501-5.044-0.501c-1.564,0-3.087,0.162-4.575,0.43
				C76.566,100.407,78.5,97.795,79.909,94.874z M56.625,102.164c-10.187,0-18.475-8.289-18.475-18.475
				c0-10.186,8.288-18.475,18.475-18.475S75.1,73.502,75.1,83.689C75.1,93.876,66.812,102.164,56.625,102.164z M60.319,128.028
				c0-10.186,8.288-18.475,18.475-18.475s18.475,8.288,18.475,18.475c0,10.186-8.288,18.475-18.475,18.475
				S60.319,138.214,60.319,128.028z M88.749,154.655c-0.693-0.713-1.458-1.347-2.266-1.929c1.825-0.569,3.552-1.355,5.179-2.293
				C90.538,151.72,89.555,153.131,88.749,154.655z M91.244,179.06c-1.405,0.011-2.749,0.237-4.054,0.57
				c0.956-0.77,1.818-1.634,2.587-2.591C90.233,177.738,90.715,178.419,91.244,179.06z M76.593,176.062
				c-5.29,0-9.593-4.303-9.593-9.593c0-5.288,4.303-9.591,9.593-9.591c5.288,0,9.591,4.303,9.591,9.591
				C86.184,171.759,81.881,176.062,76.593,176.062z M91.372,205.621c-5.29,0-9.593-4.303-9.593-9.593
				c0-5.288,4.303-9.591,9.593-9.591c5.288,0,9.591,4.303,9.591,9.591C100.963,201.318,96.66,205.621,91.372,205.621z
				 M108.353,179.757c-8.15,0-14.78-6.63-14.78-14.78c0-8.15,6.63-14.78,14.78-14.78c8.15,0,14.78,6.63,14.78,14.78
				C123.133,173.127,116.502,179.757,108.353,179.757z M121.285,142.808c-9.169,0-16.627-7.459-16.627-16.627
				c0-6.158,3.404-11.483,8.392-14.357c1.217-0.419,2.397-0.919,3.525-1.508c1.503-0.448,3.063-0.762,4.71-0.762
				c9.169,0,16.627,7.459,16.627,16.627C137.912,135.349,130.454,142.808,121.285,142.808z M152.692,105.858
				c-12.225,0-22.169-9.944-22.169-22.169c0-12.225,9.944-22.169,22.169-22.169c12.225,0,22.169,9.944,22.169,22.169
				C174.861,95.914,164.917,105.858,152.692,105.858z"/>
			<path d="M95.388,31.763c-1.302,10.356,1.243,22.045,1.685,23.956c0.395,1.707,1.914,2.861,3.596,2.861
				c0.276,0,0.556-0.031,0.837-0.096c1.988-0.46,3.226-2.445,2.766-4.433c-1.193-5.154-2.138-12.494-1.806-18.789
				c10.969,4.709,20.087,5.257,25.336,3.516c3.908-1.294,6.26-3.924,6.452-7.22c0.197-3.363-1.826-8.424-12.577-13.437
				c-8.478-3.953-15.211-3.998-20.001-0.115c-1.988,1.609-3.426,3.791-4.447,6.295C89.194,19.517,80.19,12.195,71.077,1.322
				c-1.314-1.564-3.642-1.77-5.207-0.458c-1.563,1.312-1.768,3.642-0.458,5.207C75.633,18.261,85.978,26.497,95.388,31.763z
				 M106.328,23.747c2.41-1.945,6.526-1.588,12.225,1.072c6.795,3.168,8.294,5.795,8.366,6.159c-0.144,0.225-1.319,1.11-4.438,1.312
				c-4.103,0.272-10.706-0.817-18.718-4.53C104.371,26.042,105.21,24.653,106.328,23.747z"/>
		</g>
	</g>
</g>
<g>
</g>
<g>
</g>
<g>
</g>
<g>
</g>
<g>
</g>
<g>
</g>
<g>
</g>
<g>
</g>
<g>
</g>
<g>
</g>
<g>
</g>
<g>
</g>
<g>
</g>
<g>
</g>
<g>
</g>
</svg>
